<svg xmlns="http://www.w3.org/2000/svg" viewBox="0 0 278048 333333" shape-rendering="geometricPrecision" text-rendering="geometricPrecision" image-rendering="optimizeQuality" fill-rule="evenodd" clip-rule="evenodd"><path d="M189295 1966C187984 786 186149 0 184313 0c-393 0-786 0-1180 131H16518c-4457 0-8652 1835-11668 4851C1835 7997 0 12062 0 16650v300166c0 4589 1835 8652 4851 11668 3015 3015 7079 4850 11668 4850h244749c4588 0 8652-1835 11668-4850 3015-3015 4851-7079 4851-11668V96358c131-655 262-1180 262-1835 0-2229-1048-4195-2491-5637L190213 2492c-262-262-393-393-656-524h-262zm-57690 225209v-94646c0-4041 3267-7307 7393-7307 4041 0 7393 3267 7393 7307v94559l33957-29659c3009-2665 7651-2407 10316 602s2407 7565-602 10230l-46165 40319c-2837 2493-7049 2407-9800-86l-46079-40233c-3009-2665-3353-7221-602-10230 2665-3009 7307-3267 10316-602l33957 29659-86 86zm45235-212230v64631c0 6161 2491 11799 6555 15863s9701 6555 15863 6555h63452v214821c0 393-131 918-524 1180-262 262-656 524-1180 524H16388c-394 0-918-131-1180-524-262-262-524-787-524-1180V16649c0-524 131-918 524-1180 262-262 656-524 1180-524h160453zm14814 64631V25432l60961 61747h-53357c-2098 0-3933-918-5375-2229-1311-1311-2229-3278-2229-5375z" fill-rule="nonzero"/></svg>